<?xml version="1.0" encoding="UTF-8" standalone="no"?>
<svg
   xmlns:dc="http://purl.org/dc/elements/1.1/"
   xmlns:cc="http://creativecommons.org/ns#"
   xmlns:rdf="http://www.w3.org/1999/02/22-rdf-syntax-ns#"
   xmlns:svg="http://www.w3.org/2000/svg"
   xmlns="http://www.w3.org/2000/svg"
   version="1.1"
   id="svg3489"
   viewBox="0 0 59.637278 70.40125"
   height="19.868797mm"
   width="16.830965mm">
  <defs
     id="defs3491" />
  <metadata
     id="metadata3494">
    <rdf:RDF>
      <cc:Work
         rdf:about="">
        <dc:format>image/svg+xml</dc:format>
        <dc:type
           rdf:resource="http://purl.org/dc/dcmitype/StillImage" />
        <dc:title></dc:title>
      </cc:Work>
    </rdf:RDF>
  </metadata>
  <g
     transform="translate(-316.88742,-282.87586)"
     id="layer1">
    <path
       id="path16"
       style="fill:#fff200;fill-opacity:1;fill-rule:evenodd;stroke:none"
       d="m 316.88745,286.27836 c 0,0 16.00837,-3.34125 29.4595,-3.34125 13.44925,0 30.17775,3.34125 30.17775,3.34125 0,0 0,44.74375 0,51.455 0,4.19375 -2.56788,6.44625 -3.48238,7.10625 -2.04837,1.4775 -11.22175,8.4375 -26.3135,8.4375 -14.20312,0 -22.86625,-6.12875 -26.30762,-8.54 -1.54538,-1.0875 -3.53375,-3.46375 -3.53375,-7.00375 0,-5.44125 0,-51.455 0,-51.455" />
    <path
       id="path18"
       style="fill:#231f20;fill-opacity:1;fill-rule:nonzero;stroke:none"
       d="m 372.0682,345.79836 c -12.16413,7.88875 -24.795,7.46 -24.795,7.46 0,0 -0.34763,-1.61125 -0.209,-4.39 0.13825,-2.77875 1.65537,-1.995 2.753,-4.19125 0.39787,-0.7975 0.74075,-1.34875 1.36375,-3.21625 0.0254,-0.0775 -0.729,-13.38875 -0.9195,-19.04 -0.1025,-3.0425 -0.67475,-8.12375 -1.34513,-13.0625 -0.3955,-2.9275 -1.28562,-5.24625 -1.69675,-8.025 -0.59575,-4.01375 -1.28662,-8.54 -1.28662,-8.54 -0.49463,1.2775 -1.20363,6.06 -1.91563,11.45625 -0.34125,2.58875 -0.6845,5.32 -1.00437,7.87375 -0.67775,5.40625 -2.36575,19.88 -2.62113,20.665 -0.38575,1.19125 -0.42725,-0.315 -0.42725,-0.315 0,0 1.0015,-15.18125 1.30275,-21.84 0.1465,-3.255 0.39313,-6.83125 0.79838,-10.2625 0.30512,-2.5775 0.70075,-5.07375 1.211,-7.29125 0,0 1.73825,-5.25125 2.29237,-5.355 0.55425,-0.105 2.56013,3.31 3.23738,6.3475 1.53462,6.86 2.43987,7.7375 3.60837,14.94375 1.11188,6.8475 2.1265,12.575 2.26313,13.5125 0.49812,3.39875 0.2515,13.9975 -0.60538,18.21875 -0.20262,1.1525 -0.26512,1.57625 -1.01662,2.3375 -1.76325,1.78375 -3.01663,3.90875 -3.01663,5.3 0,1.39 -0.23187,1.3625 0.0976,2.16875 0,0 2.32525,3.48 15.6885,-4.485 0,0 4.17575,-2.1875 4.17575,-7.015 l 0,-48.83875 c 0,0 -13.25037,-4.48 -23.4555,-4.48 -10.2065,0 -22.98587,4.46875 -22.98587,4.46875 l 0,48.62875 c 0,2.9925 0.43562,8.60625 4.7095,10.52125 -10e-6,0 -11.38188,-3.895 -11.38188,-10.58125 l 0,-52.69875 c 0,0 17.3755,-3.1975 29.6655,-3.1975 12.29012,0 29.97175,3.1975 29.97175,3.1975 0,0 0,48.2175 0,52.7625 0,4.54375 -4.4565,6.9625 -4.4565,6.9625" />
  </g>
</svg>
